<svg xmlns="http://www.w3.org/2000/svg" xmlns:xlink="http://www.w3.org/1999/xlink" width="64" zoomAndPan="magnify" viewBox="0 0 48 48" height="64" preserveAspectRatio="xMidYMid meet" version="1.2"><defs><clipPath id="1d58ecc9da"><path d="M 5.191406 0 L 44.128906 0 L 44.128906 47.019531 L 5.191406 47.019531 Z M 5.191406 0 "/></clipPath><clipPath id="922e127a96"><path d="M 8 0 L 40 0 L 40 47.019531 L 8 47.019531 Z M 8 0 "/></clipPath><clipPath id="06d84fb61c"><path d="M 5.191406 8 L 44.128906 8 L 44.128906 40 L 5.191406 40 Z M 5.191406 8 "/></clipPath></defs><g id="ccf4c30e42"><g clip-rule="nonzero" clip-path="url(#1d58ecc9da)"><path style=" stroke:none;fill-rule:nonzero;fill:#000000;fill-opacity:1;" d="M 29.484375 2.710938 L 36.269531 -6.761719 L 33.066406 -7 L 44.023438 -24.714844 L 28.679688 -4.777344 L 31.78125 -4.550781 L 22.878906 7.878906 L 30.234375 4.996094 L 21.753906 18.664062 L 25.382812 18.664062 L 14.6875 31.085938 L 21.585938 29.738281 L 10.921875 46.949219 L 15.089844 45.835938 L 5.390625 64.253906 L 21.070312 41.726562 L 16.132812 43.042969 L 26.523438 26.28125 L 21.003906 27.355469 L 30.648438 16.152344 L 26.101562 16.152344 L 36.039062 0.144531 Z M 29.484375 2.710938 "/></g><g clip-rule="nonzero" clip-path="url(#922e127a96)"><path style=" stroke:none;fill-rule:nonzero;fill:#ffdb06;fill-opacity:1;" d="M 8.082031 59.808594 L 15.75 45.308594 L 11.652344 46.398438 L 22.277344 29.253906 L 15.574219 30.558594 L 26.121094 18.3125 L 22.359375 18.3125 L 31.046875 4.316406 L 23.804688 7.152344 L 32.410156 -4.859375 L 29.332031 -5.085938 L 39.882812 -18.796875 L 32.480469 -6.683594 L 35.640625 -6.453125 L 28.558594 3.4375 L 35.226562 0.824219 L 25.492188 16.507812 L 29.910156 16.507812 L 20.117188 27.878906 L 25.832031 26.765625 L 15.402344 43.59375 L 20.269531 42.292969 Z M 8.082031 59.808594 "/></g><g clip-rule="nonzero" clip-path="url(#06d84fb61c)"><path style=" stroke:none;fill-rule:nonzero;fill:#ffdb06;fill-opacity:1;" d="M 44.128906 13.179688 L 41.992188 10.207031 C 41.714844 9.824219 41.398438 9.390625 41.046875 8.925781 L 40.503906 8.195312 L 31.222656 8.195312 L 30.554688 8.710938 C 30.535156 8.722656 30.519531 8.738281 30.503906 8.75 L 30.757812 8.195312 L 20.804688 8.195312 L 17.339844 15.730469 L 18.125 8.195312 L 8.367188 8.195312 L 5.191406 39.085938 L 16.597656 39.085938 L 20.195312 31.238281 L 19.398438 34.082031 L 19.929688 34.824219 C 20.273438 35.300781 20.578125 35.726562 20.84375 36.09375 C 21.316406 36.769531 21.859375 37.527344 22.464844 38.347656 L 23.011719 39.085938 L 32.308594 39.085938 L 34.605469 37.296875 C 35.453125 36.648438 36.421875 35.890625 37.488281 35.046875 L 38.140625 34.527344 L 41.152344 23.796875 L 39.015625 20.828125 C 38.84375 20.589844 38.660156 20.332031 38.457031 20.058594 L 42.207031 20.058594 Z M 23.21875 24.640625 L 25.304688 27.535156 L 21.894531 27.535156 Z M 23.21875 24.640625 "/></g><path style=" stroke:none;fill-rule:nonzero;fill:#ff5c02;fill-opacity:1;" d="M 21.703125 9.714844 L 15.988281 22.140625 L 14.925781 24.480469 L 15.695312 16.910156 L 16.441406 9.714844 L 9.734375 9.714844 L 6.871094 37.566406 L 15.695312 37.566406 L 28.457031 9.714844 Z M 21.703125 9.714844 "/><path style=" stroke:none;fill-rule:nonzero;fill:#000000;fill-opacity:1;" d="M 15.984375 38.050781 L 6.335938 38.050781 L 9.296875 9.230469 L 16.976562 9.230469 L 16.179688 16.894531 L 15.695312 21.679688 L 21.417969 9.230469 L 29.191406 9.230469 Z M 7.402344 37.082031 L 15.410156 37.082031 L 27.730469 10.199219 L 21.992188 10.199219 L 16.429688 22.289062 L 14.15625 27.28125 L 15.207031 16.925781 L 15.90625 10.199219 L 10.167969 10.199219 Z M 7.402344 37.082031 "/><path style=" stroke:none;fill-rule:nonzero;fill:#60ca8b;fill-opacity:1;" d="M 41.089844 18.535156 L 42.464844 13.636719 L 40.707031 11.191406 C 40.433594 10.8125 40.117188 10.386719 39.773438 9.925781 L 39.617188 9.714844 L 31.589844 9.714844 L 31.394531 9.863281 C 30.324219 10.691406 29.363281 11.441406 28.535156 12.097656 C 28.066406 12.464844 27.519531 12.882812 26.90625 13.351562 L 26.710938 13.503906 L 24.042969 23.007812 L 26.882812 26.949219 L 32.105469 26.949219 L 30.980469 30.957031 L 28.441406 30.957031 L 28.972656 29.058594 L 22.34375 29.058594 L 21.0625 33.625 L 21.21875 33.839844 C 21.5625 34.320312 21.871094 34.746094 22.136719 35.117188 C 22.601562 35.78125 23.144531 36.535156 23.746094 37.355469 L 23.902344 37.570312 L 31.9375 37.570312 L 33.769531 36.140625 C 34.613281 35.492188 35.578125 34.742188 36.628906 33.90625 L 36.816406 33.757812 L 39.484375 24.261719 L 37.726562 21.816406 C 37.449219 21.4375 37.136719 21.011719 36.792969 20.550781 L 36.636719 20.339844 L 31.417969 20.339844 L 32.542969 16.332031 L 35.082031 16.332031 L 34.460938 18.542969 Z M 41.089844 18.535156 "/><path style=" stroke:none;fill-rule:nonzero;fill:#000000;fill-opacity:1;" d="M 32.054688 38.050781 L 23.617188 38.050781 L 23.339844 37.667969 C 22.734375 36.847656 22.195312 36.09375 21.722656 35.421875 C 21.460938 35.058594 21.152344 34.632812 20.8125 34.152344 L 20.535156 33.769531 L 21.996094 28.570312 L 29.597656 28.570312 L 29.066406 30.46875 L 30.628906 30.46875 L 31.484375 27.429688 L 26.589844 27.429688 L 23.511719 23.152344 L 26.289062 13.253906 L 26.640625 12.984375 C 27.246094 12.523438 27.789062 12.097656 28.261719 11.730469 C 29.085938 11.078125 30.046875 10.324219 31.121094 9.5 L 31.46875 9.230469 L 39.898438 9.230469 L 40.179688 9.609375 C 40.523438 10.074219 40.839844 10.5 41.117188 10.882812 L 42.996094 13.492188 L 41.445312 19.019531 L 33.839844 19.019531 L 34.460938 16.8125 L 32.898438 16.8125 L 32.046875 19.851562 L 36.921875 19.851562 L 37.203125 20.226562 C 37.550781 20.691406 37.863281 21.117188 38.140625 21.5 L 40.019531 24.109375 L 37.246094 33.996094 L 36.910156 34.261719 C 35.847656 35.101562 34.882812 35.855469 34.039062 36.5 Z M 24.1875 37.082031 L 31.820312 37.082031 L 33.5 35.773438 C 34.339844 35.125 35.300781 34.375 36.359375 33.539062 L 36.402344 33.503906 L 38.953125 24.398438 L 37.316406 22.125 C 37.042969 21.746094 36.734375 21.324219 36.386719 20.863281 L 36.351562 20.816406 L 30.792969 20.816406 L 32.1875 15.839844 L 35.707031 15.839844 L 35.085938 18.050781 L 40.734375 18.050781 L 41.929688 13.777344 L 40.292969 11.503906 C 40.023438 11.125 39.710938 10.703125 39.367188 10.242188 L 39.332031 10.195312 L 31.703125 10.195312 L 31.660156 10.230469 C 30.589844 11.054688 29.632812 11.804688 28.808594 12.453125 C 28.332031 12.828125 27.785156 13.25 27.175781 13.714844 L 27.128906 13.75 L 24.574219 22.855469 L 27.167969 26.460938 L 32.730469 26.460938 L 31.335938 31.4375 L 27.816406 31.4375 L 28.347656 29.539062 L 22.699219 29.539062 L 21.59375 33.480469 L 21.628906 33.527344 C 21.96875 34.007812 22.277344 34.433594 22.542969 34.800781 C 23.015625 35.472656 23.554688 36.222656 24.152344 37.039062 Z M 24.1875 37.082031 "/></g></svg>